<?xml version="1.0" encoding="UTF-8"?>
<svg width="752pt" height="752pt" version="1.1" viewBox="0 0 752 752" xmlns="http://www.w3.org/2000/svg">
    <defs>
        <clipPath id="a">
            <path d="m139.21 139.21h473.58v473.58h-473.58z"/>
        </clipPath>
    </defs>
    <g clip-path="url(#a)">
        <path d="m369.07 594.73-33.637 15.062c-14.629 6.5547-31.848 1.9414-41.238-11.047l-21.598-29.867c-2.8242-3.9062-7.1797-6.4219-11.973-6.9141l-36.664-3.7695c-15.945-1.6406-28.547-14.246-30.188-30.188l-3.7734-36.664c-0.49219-4.793-3.0078-9.1523-6.9102-11.977l-29.867-21.594c-12.988-9.3945-17.602-26.613-11.051-41.238l15.066-33.637c1.9688-4.3984 1.9688-9.4297 0-13.828l-15.066-33.637c-6.5508-14.629-1.9375-31.848 11.051-41.238l29.867-21.598c3.9023-2.8242 6.418-7.1797 6.9102-11.973l3.7734-36.664c1.6406-15.945 14.242-28.547 30.188-30.188l36.664-3.7734c4.793-0.49219 9.1484-3.0078 11.973-6.9102l21.598-29.867c9.3906-12.988 26.609-17.602 41.238-11.051l33.637 15.066c4.3984 1.9688 9.4297 1.9688 13.828 0l33.637-15.066c14.625-6.5508 31.844-1.9375 41.238 11.051l21.594 29.867c2.8242 3.9023 7.1836 6.418 11.977 6.9102l36.664 3.7734c15.941 1.6406 28.547 14.242 30.188 30.188l3.7695 36.664c0.49219 4.793 3.0078 9.1484 6.9141 11.973l29.867 21.598c12.988 9.3906 17.602 26.609 11.047 41.238l-15.062 33.637c-1.9727 4.3984-1.9727 9.4297 0 13.828l15.062 33.637c6.5547 14.625 1.9414 31.844-11.047 41.238l-29.867 21.594c-3.9062 2.8242-6.4219 7.1836-6.9141 11.977l-3.7695 36.664c-1.6406 15.941-14.246 28.547-30.188 30.188l-36.664 3.7695c-4.793 0.49219-9.1523 3.0078-11.977 6.9141l-21.594 29.867c-9.3945 12.988-26.613 17.602-41.238 11.047l-33.637-15.062c-4.3984-1.9727-9.4297-1.9727-13.828 0zm-84.469-250.74-28.703 28.703 96.355 96.359 147.92-147.91-28.707-28.707-119.21 119.21z" fill-rule="evenodd" />
    </g>
</svg>